HIERARCHY
ROOT Hips
{
	OFFSET 54.365898 -17.656916 94.134399
	CHANNELS 6 Xposition Yposition Zposition Xrotation Yrotation Zrotation
	JOINT spine
	{
		OFFSET 0.000000 -0.448574 7.800591
		CHANNELS 3 Xrotation Yrotation Zrotation
		JOINT spine1
		{
			OFFSET 0.000000 -0.000002 10.136398
			CHANNELS 3 Xrotation Yrotation Zrotation
			JOINT spine2
			{
				OFFSET 0.000000 0.000000 9.712509
				CHANNELS 3 Xrotation Yrotation Zrotation
				JOINT Neck
				{
					OFFSET 0.000000 -1.188875 24.936104
					CHANNELS 3 Xrotation Yrotation Zrotation
					JOINT Head
					{
						OFFSET 0.000000 0.000000 7.533844
						CHANNELS 3 Xrotation Yrotation Zrotation
						End Site
						{
							OFFSET 0.000000 6.014017 18.236099
						}
					}
				}
				JOINT RightShoulder
				{
					OFFSET -4.089649 0.569454 10.488808
					CHANNELS 3 Xrotation Yrotation Zrotation
					JOINT RightArm
					{
						OFFSET 0.000000 -0.000002 13.757004
						CHANNELS 3 Xrotation Yrotation Zrotation
						JOINT RightArmRoll
						{
							OFFSET 0.000000 -0.000002 6.944778
							CHANNELS 3 Xrotation Yrotation Zrotation
							JOINT RightForeArm
							{
								OFFSET 0.000000 -0.000004 20.227692
								CHANNELS 3 Xrotation Yrotation Zrotation
								JOINT RightForeArmRoll
								{
									OFFSET 0.000000 0.000000 7.793121
									CHANNELS 3 Xrotation Yrotation Zrotation
									JOINT RightHand
									{
										OFFSET 0.000000 -0.000004 15.639099
										CHANNELS 3 Xrotation Yrotation Zrotation
										End Site
										{
											OFFSET 0.000000 0.000000 0.100006
										}
									}
								}
							}
						}
					}
				}
				JOINT LeftShoulder
				{
					OFFSET 4.089649 0.569454 10.488808
					CHANNELS 3 Xrotation Yrotation Zrotation
					JOINT LeftArm
					{
						OFFSET 0.000000 -0.000002 13.757004
						CHANNELS 3 Xrotation Yrotation Zrotation
						JOINT LeftArmRoll
						{
							OFFSET 0.000000 -0.000002 6.944778
							CHANNELS 3 Xrotation Yrotation Zrotation
							JOINT LeftForeArm
							{
								OFFSET 0.000000 -0.000004 20.227692
								CHANNELS 3 Xrotation Yrotation Zrotation
								JOINT LeftForeArmRoll
								{
									OFFSET 0.000000 0.000000 7.793121
									CHANNELS 3 Xrotation Yrotation Zrotation
									JOINT LeftHand
									{
										OFFSET 0.000000 -0.000004 15.639099
										CHANNELS 3 Xrotation Yrotation Zrotation
										End Site
										{
											OFFSET 0.000000 0.000000 0.100006
										}
									}
								}
							}
						}
					}
				}
			}
		}
	}
	JOINT RightUpLeg
	{
		OFFSET -6.914162 1.063580 -1.267883
		CHANNELS 3 Xrotation Yrotation Zrotation
		JOINT RightUpLegRoll
		{
			OFFSET 0.000000 -0.000002 18.337799
			CHANNELS 3 Xrotation Yrotation Zrotation
			JOINT RightLeg
			{
				OFFSET 0.000000 0.000002 -22.708496
				CHANNELS 3 Xrotation Yrotation Zrotation
				JOINT RightLegRoll
				{
					OFFSET 0.000000 -0.000004 22.782799
					CHANNELS 3 Xrotation Yrotation Zrotation
					JOINT RightFoot
					{
						OFFSET 0.000000 -0.000002 18.962898
						CHANNELS 3 Xrotation Yrotation Zrotation
						JOINT RightToeBase
						{
							OFFSET 0.000000 -0.000002 15.852005
							CHANNELS 3 Xrotation Yrotation Zrotation
							End Site
							{
								OFFSET 0.006718 0.884890 7.677017
							}
						}
					}
				}
			}
		}
	}
	JOINT LeftUpLeg
	{
		OFFSET 6.914162 1.063580 -1.267883
		CHANNELS 3 Xrotation Yrotation Zrotation
		JOINT LeftUpLegRoll
		{
			OFFSET 0.000000 -0.000002 18.337898
			CHANNELS 3 Xrotation Yrotation Zrotation
			JOINT LeftLeg
			{
				OFFSET 0.000000 -0.000004 22.708397
				CHANNELS 3 Xrotation Yrotation Zrotation
				JOINT LeftLegRoll
				{
					OFFSET 0.000000 -0.000004 22.993408
					CHANNELS 3 Xrotation Yrotation Zrotation
					JOINT LeftFoot
					{
						OFFSET 0.000000 -0.000004 18.752197
						CHANNELS 3 Xrotation Yrotation Zrotation
						JOINT LeftToeBase
						{
							OFFSET 0.000000 -0.000002 15.852005
							CHANNELS 3 Xrotation Yrotation Zrotation
							End Site
							{
								OFFSET -0.030113 0.884892 7.677017
							}
						}
					}
				}
			}
		}
	}
}
MOTION
Frames: 13
Frame Time: 0.041667
54.754105 -17.256517 94.071007 -7.925761 -0.691842 -0.855204 -1.327930 0.322423 0.336956 1.345104 0.639991 0.677946 2.990181 0.648067 0.670235 15.493077 -4.051168 -0.077017 -11.177841 -5.718527 0.033400 -14.967359 -75.215635 -18.071134 -53.074627 -132.846688 -123.604458 0.000002 -0.000005 0.000002 104.780033 9.803881 -20.775636 -0.000001 0.000002 -2.999988 -5.000165 -7.998762 0.000129 7.542528 67.064958 -7.442376 -54.530147 125.359448 75.160515 0.000000 0.000019 -0.000002 107.342078 -1.686718 11.751238 -0.000005 -0.000007 3.000001 -5.000186 7.999488 -0.000071 1.945290 -173.717597 1.556151 -179.999991 0.000006 -0.948995 166.494358 0.828450 -0.931024 -0.000000 0.000003 0.082109 71.420133 5.412057 6.013925 25.457671 -7.355619 0.001073 3.939972 179.566028 6.270961 -0.000005 -0.000004 -1.441850 -11.433768 4.471355 0.692818 -0.000005 0.000000 -0.236198 72.940130 -7.390683 -0.396298 25.456955 7.355613 -0.000000 
54.746803 -17.218012 94.067398 -7.905591 -0.698564 -0.844070 -1.332339 0.320598 0.337042 1.336293 0.636620 0.678351 2.981378 0.644701 0.670679 15.520307 -4.007887 -0.089012 -11.249491 -5.742827 0.015426 -14.967412 -75.198422 -18.070777 -53.087618 -132.730889 -123.508672 0.000001 -0.000007 0.000000 104.852857 9.839285 -20.872624 -0.000005 0.000002 -2.999989 -5.000166 -7.998765 0.000133 7.483396 67.063838 -7.376647 -54.582152 125.346990 75.099528 0.000002 0.000019 0.000000 107.315830 -1.679441 11.712748 -0.000004 -0.000007 2.999999 -5.000188 7.999487 -0.000071 1.918834 -173.711491 1.556516 -179.999991 0.000005 -0.948995 166.481667 0.825483 -0.931542 -0.000001 0.000003 0.082504 71.426737 5.412925 6.012345 25.457671 -7.355617 0.001072 3.917252 179.572012 6.277112 -0.000005 -0.000004 -1.441460 -11.432540 4.469757 0.693164 -0.000005 0.000000 -0.236293 72.936414 -7.390434 -0.397506 25.456950 7.355613 0.000000 
54.749504 -17.219515 94.064697 -7.883608 -0.704696 -0.834446 -1.338560 0.318933 0.337030 1.323851 0.633625 0.678512 2.968937 0.641709 0.670876 15.584364 -3.976406 -0.096485 -11.351732 -5.752906 -0.000621 -14.980584 -75.195178 -18.084922 -53.109598 -132.629050 -123.423786 0.000001 -0.000006 0.000001 104.912867 9.869001 -20.956795 -0.000003 0.000003 -2.999989 -5.000168 -7.998763 0.000134 7.448448 67.064159 -7.337657 -54.627259 125.329955 74.991932 0.000001 0.000020 -0.000001 107.290483 -1.666863 11.660456 -0.000002 -0.000008 3.000000 -5.000188 7.999483 -0.000071 1.890220 -173.706396 1.555826 -179.999991 0.000005 -0.948995 166.469277 0.823502 -0.931831 -0.000002 0.000003 0.082857 71.432755 5.413920 6.010618 25.457664 -7.355619 0.001072 3.894080 179.576998 6.282528 -0.000005 -0.000004 -1.441080 -11.430010 4.468503 0.693498 -0.000004 0.000000 -0.236424 72.933033 -7.390183 -0.398691 25.456950 7.355613 0.000000 
54.719006 -17.236219 94.069504 -7.858408 -0.711000 -0.825886 -1.346819 0.317385 0.336909 1.307348 0.630958 0.678423 2.952423 0.639042 0.670818 15.685463 -3.952490 -0.099946 -11.488636 -5.752226 -0.015502 -15.005135 -75.202930 -18.111625 -53.142956 -132.534548 -123.352547 0.000001 -0.000010 0.000001 104.962188 9.896629 -21.030781 -0.000002 0.000003 -2.999990 -5.000168 -7.998765 0.000131 7.431045 67.065887 -7.318041 -54.667564 125.308372 74.846695 0.000003 0.000020 -0.000002 107.263873 -1.649405 11.597411 -0.000004 -0.000006 3.000000 -5.000186 7.999484 -0.000071 1.857432 -173.700289 1.554375 -179.999991 0.000005 -0.947998 166.456273 0.820535 -0.932348 -0.000001 0.000003 0.083184 71.438499 5.415028 6.008820 25.457667 -7.355619 0.001072 3.869343 179.581956 6.287896 -0.000005 -0.000004 -1.440690 -11.425482 4.467526 0.693829 -0.000004 0.000000 -0.236594 72.929447 -7.389980 -0.399698 25.456955 7.355613 -0.000000 
54.722904 -17.221914 94.065392 -7.830469 -0.717396 -0.818308 -1.356849 0.315938 0.336705 1.287298 0.628570 0.678141 2.932371 0.636650 0.670565 15.819078 -3.935578 -0.099885 -11.655492 -5.741813 -0.029233 -15.039877 -75.220423 -18.149547 -53.186611 -132.446712 -123.293657 0.000002 -0.000007 0.000003 105.003005 9.922107 -21.098748 -0.000004 0.000004 -2.999988 -5.000168 -7.998761 0.000130 7.429806 67.068660 -7.316265 -54.705137 125.282253 74.668878 -0.000002 0.000020 0.000000 107.236046 -1.627716 11.523706 -0.000004 -0.000007 2.999999 -5.000186 7.999484 -0.000071 1.821134 -173.694156 1.552231 -179.999991 0.000005 -0.947998 166.442885 0.818536 -0.932626 -0.000001 0.000002 0.083489 71.443949 5.416217 6.006951 25.457665 -7.355619 0.001072 3.843252 179.586942 6.293181 -0.000005 -0.000004 -1.440290 -11.419450 4.466806 0.694165 -0.000004 0.000000 -0.236793 72.925745 -7.389761 -0.400709 25.456952 7.355614 -0.000000 
54.724205 -17.230015 94.070900 -7.800248 -0.723799 -0.811630 -1.368389 0.314578 0.336447 1.264216 0.626414 0.677726 2.909288 0.634490 0.670175 15.980583 -3.925120 -0.096792 -11.847698 -5.722687 -0.041856 -15.083581 -75.246398 -18.197342 -53.239644 -132.364927 -123.245682 0.000002 -0.000005 0.000000 105.037429 9.945748 -21.160949 -0.000001 0.000003 -2.999994 -5.000167 -7.998763 0.000128 7.443420 67.072649 -7.330879 -54.738229 125.253129 74.458604 -0.000001 0.000020 -0.000000 107.207578 -1.601534 11.441333 -0.000006 -0.000007 3.000000 -5.000189 7.999487 -0.000070 1.781966 -173.689033 1.549434 -179.999991 0.000005 -0.947998 166.429198 0.815581 -0.933133 -0.000000 0.000002 0.083770 71.449093 5.417456 6.005104 25.457669 -7.355617 0.001072 3.815989 179.590918 6.298275 -0.000005 -0.000004 -1.439880 -11.412219 4.466330 0.694503 -0.000005 0.000000 -0.237018 72.921961 -7.389602 -0.401636 25.456953 7.355613 -0.000000 
54.716404 -17.221716 94.068108 -7.768243 -0.730132 -0.805768 -1.381198 0.313288 0.336164 1.238614 0.624442 0.677236 2.883696 0.632512 0.669709 16.165463 -3.920533 -0.091137 -12.060640 -5.695871 -0.053392 -15.134849 -75.279401 -18.253447 -53.301027 -132.288552 -123.207392 0.000000 -0.000011 0.000003 105.067072 9.968559 -21.218594 -0.000000 0.000004 -2.999989 -5.000168 -7.998757 0.000131 7.470506 67.077621 -7.360354 -54.767875 125.221669 74.219424 0.000003 0.000020 -0.000000 107.178673 -1.572122 11.350470 -0.000005 -0.000006 3.000000 -5.000191 7.999490 -0.000070 1.740577 -173.682900 1.546134 -179.999991 0.000004 -0.947001 166.415401 0.813582 -0.933408 -0.000000 0.000002 0.084032 71.453956 5.418771 6.003282 25.457669 -7.355619 0.001072 3.787757 179.595904 6.303276 -0.000005 -0.000004 -1.439460 -11.403991 4.466087 0.694829 -0.000004 0.000000 -0.237257 72.918089 -7.389486 -0.402573 25.456952 7.355614 -0.000000 
54.728405 -17.202116 94.065804 -7.734923 -0.736312 -0.800640 -1.394988 0.312053 0.335882 1.211031 0.622606 0.676730 2.856105 0.630671 0.669224 16.368994 -3.921274 -0.083376 -12.289699 -5.662381 -0.063866 -15.192578 -75.318251 -18.316662 -53.370552 -132.216288 -123.178596 0.000000 -0.000006 0.000002 105.094495 9.990338 -21.274946 -0.000002 0.000002 -2.999992 -5.000168 -7.998763 0.000130 7.509714 67.083509 -7.403199 -54.794633 125.188256 73.954386 0.000001 0.000021 -0.000001 107.149631 -1.539251 11.252101 -0.000001 -0.000005 3.000001 -5.000187 7.999488 -0.000069 1.697604 -173.676766 1.542363 -179.999991 0.000005 -0.946003 166.401604 0.811597 -0.934692 0.000001 0.000003 0.084274 71.458518 5.420138 6.001282 25.457669 -7.355618 0.001072 3.758751 179.599879 6.308004 -0.000005 -0.000004 -1.439030 -11.395261 4.466049 0.695154 -0.000005 0.000000 -0.237508 72.914428 -7.389350 -0.403295 25.456955 7.355613 -0.000000 
54.723602 -17.200516 94.065300 -7.700780 -0.742258 -0.796166 -1.409528 0.310858 0.335629 1.181960 0.620858 0.676267 2.827041 0.628915 0.668781 16.586759 -3.926756 -0.073939 -12.530376 -5.623235 -0.073327 -15.255415 -75.361527 -18.385462 -53.445513 -132.148738 -123.155715 0.000001 -0.000009 0.000003 105.121147 10.012001 -21.329205 -0.000003 0.000006 -2.999993 -5.000169 -7.998763 0.000128 7.559731 67.090298 -7.457956 -54.818255 125.154050 73.665509 0.000000 0.000020 -0.000002 107.120855 -1.503834 11.146381 -0.000005 -0.000006 3.000003 -5.000184 7.999489 -0.000070 1.653692 -173.671616 1.538191 -179.999991 0.000005 -0.946003 166.388121 0.809611 -0.934970 -0.000000 0.000002 0.084499 71.462780 5.421551 5.999207 25.457667 -7.355617 0.001072 3.729160 179.603840 6.312499 -0.000005 -0.000004 -1.438601 -11.386336 4.466206 0.695474 -0.000004 0.000001 -0.237761 72.910801 -7.389300 -0.403926 25.456955 7.355613 0.000000 
54.715405 -17.205513 94.067307 -7.666268 -0.747889 -0.792262 -1.424550 0.309686 0.335434 1.151938 0.619148 0.675905 2.797008 0.627202 0.668440 16.814041 -3.936445 -0.063300 -12.777961 -5.579461 -0.081822 -15.322286 -75.408150 -18.458648 -53.526622 -132.084001 -123.139677 -0.000002 -0.000006 0.000003 105.149417 10.033609 -21.384619 -0.000003 0.000002 -2.999992 -5.000168 -7.998764 0.000129 7.619150 67.097723 -7.523075 -54.840706 125.119039 73.357482 0.000002 0.000020 0.000000 107.092626 -1.465912 11.034297 -0.000005 -0.000006 2.999999 -5.000183 7.999483 -0.000071 1.609501 -173.666466 1.533708 -179.999991 0.000006 -0.945006 166.375116 0.807614 -0.936257 -0.000000 0.000003 0.084707 71.466728 5.422948 5.997244 25.457667 -7.355619 0.001072 3.699189 179.607829 6.316724 -0.000005 -0.000004 -1.438170 -11.377613 4.466528 0.695789 -0.000004 0.000000 -0.238014 72.907406 -7.389292 -0.404348 25.456950 7.355613 -0.000000 
54.712906 -17.195515 94.065910 -7.631881 -0.753125 -0.788849 -1.439791 0.308523 0.335326 1.121455 0.617430 0.675703 2.766536 0.625481 0.668259 17.046318 -3.949780 -0.051907 -13.027945 -5.532066 -0.089461 -15.391623 -75.456590 -18.534509 -53.611924 -132.021983 -123.128203 0.000000 -0.000008 0.000002 105.181191 10.055595 -21.442407 -0.000003 0.000002 -2.999990 -5.000170 -7.998761 0.000129 7.686708 67.105837 -7.597143 -54.860561 125.084943 73.030773 0.000002 0.000020 -0.000002 107.065264 -1.426396 10.917020 0.000001 -0.000009 2.999999 -5.000185 7.999488 -0.000073 1.565664 -173.662354 1.528981 -179.999991 0.000005 -0.943995 166.362631 0.805634 -0.936551 -0.000002 0.000002 0.084901 71.470266 5.424389 5.995206 25.457665 -7.355616 0.001072 3.669025 179.611804 6.320628 -0.000005 -0.000004 -1.437740 -11.369296 4.467012 0.696091 -0.000006 0.000000 -0.238255 72.904346 -7.389285 -0.404750 25.456950 7.355614 -0.000000 
54.750103 -17.211315 94.061409 -7.598098 -0.757885 -0.785847 -1.454988 0.307353 0.335330 1.091054 0.615652 0.675720 2.736122 0.623704 0.668297 17.279079 -3.966213 -0.040216 -13.275623 -5.482055 -0.096349 -15.462206 -75.505672 -18.611702 -53.700231 -131.961932 -123.119829 0.000001 -0.000006 -0.000001 105.218340 10.078745 -21.501854 -0.000003 0.000003 -2.999993 -5.000168 -7.998765 0.000132 7.760975 67.114511 -7.678599 -54.879740 125.051721 72.690158 -0.000001 0.000021 0.000000 107.039166 -1.385066 10.796488 -0.000001 -0.000009 2.999998 -5.000186 7.999485 -0.000071 1.522835 -173.658215 1.524119 -179.999991 0.000005 -0.943995 166.350937 0.803642 -0.936860 -0.000001 0.000003 0.085082 71.473483 5.425823 5.992985 25.457665 -7.355617 0.001071 3.638874 179.614796 6.324113 -0.000005 -0.000004 -1.437310 -11.361882 4.467628 0.696386 -0.000004 0.000000 -0.238479 72.901519 -7.389348 -0.404945 25.456955 7.355613 0.000000 
54.739803 -17.202911 94.061806 -7.565392 -0.762087 -0.783175 -1.469899 0.306160 0.335476 1.061240 0.613769 0.676016 2.706310 0.621823 0.668616 17.507597 -3.985187 -0.028739 -13.516512 -5.430420 -0.102647 -15.532624 -75.554043 -18.688682 -53.790646 -131.903220 -123.113395 -0.000001 -0.000008 0.000000 105.263201 10.102689 -21.568102 -0.000000 0.000004 -2.999990 -5.000169 -7.998765 0.000129 7.840652 67.123575 -7.765989 -54.898120 125.020643 72.337536 0.000002 0.000019 0.000000 107.014434 -1.343088 10.670905 -0.000002 -0.000007 3.000001 -5.000186 7.999488 -0.000070 1.481644 -173.654104 1.519191 -179.999991 0.000005 -0.942998 166.340241 0.802637 -0.936946 -0.000001 0.000003 0.085251 71.476290 5.427225 5.990879 25.457669 -7.355620 0.001073 3.608933 179.616763 6.327148 -0.000005 -0.000004 -1.436880 -11.355674 4.468362 0.696670 -0.000004 0.000000 -0.238681 72.899162 -7.389461 -0.404918 25.456957 7.355613 0.000000 
